<svg width="25" height="25" viewBox="0 0 25 25" fill="none" xmlns="http://www.w3.org/2000/svg">
<path fill-rule="evenodd" clip-rule="evenodd" d="M11.8462 7.06481C11.9594 7.16462 12.1104 7.2103 12.26 7.18997C13.2611 7.00537 14.1566 6.45234 14.77 5.63997C15.3664 4.88728 15.7156 3.96873 15.77 3.00997C15.7745 2.85109 15.7046 2.69921 15.5811 2.59921C15.4576 2.4992 15.2945 2.46251 15.14 2.49997C14.1751 2.75193 13.3121 3.29697 12.67 4.05997C12.0599 4.79704 11.7086 5.71395 11.67 6.66997C11.6686 6.82091 11.7329 6.965 11.8462 7.06481ZM19.2025 9.72549C18.6109 10.2807 17.68 11.1542 17.68 13.01C17.6661 14.6669 18.576 16.1938 20.04 16.97C20.2211 17.0518 20.3382 17.2313 20.34 17.43C20.34 17.5 18.24 22.5 15.72 22.5C15.1683 22.5 14.8006 22.3261 14.3979 22.1357C13.91 21.905 13.3705 21.65 12.39 21.65C11.4236 21.65 10.8828 21.8977 10.3851 22.1257C9.96094 22.32 9.56815 22.5 8.97001 22.5C6.65001 22.5 3.50001 17.64 3.50001 13.25C3.46015 12.01 3.76846 10.7837 4.39001 9.70997C5.26661 8.2243 6.82762 7.27494 8.55001 7.17997C9.36168 7.17997 10.0261 7.41887 10.6546 7.64484C11.2186 7.84761 11.7536 8.03997 12.34 8.03997C12.8999 8.03997 13.3517 7.86465 13.8473 7.67233C14.4495 7.4387 15.1163 7.17997 16.12 7.17997C17.95 7.17997 19.68 8.49997 19.68 9.08997C19.68 9.27744 19.4781 9.46693 19.2025 9.72549Z" fill="black"/>
</svg>
